<?xml version="1.0" encoding="UTF-8" standalone="no"?>
<!DOCTYPE svg PUBLIC "-//W3C//DTD SVG 1.1//EN"
 "http://www.w3.org/Graphics/SVG/1.1/DTD/svg11.dtd">
<!-- Generated by graphviz version 2.50.0 (20211209.0339)
 -->
<!-- Title: snakemake_dag Pages: 1 -->
<svg width="1922pt" height="553pt"
 viewBox="0.00 0.00 1922.00 553.00" xmlns="http://www.w3.org/2000/svg" xmlns:xlink="http://www.w3.org/1999/xlink">
<g id="graph0" class="graph" transform="scale(1 1) rotate(0) translate(4 549)">
<title>snakemake_dag</title>
<polygon fill="white" stroke="transparent" points="-4,4 -4,-549 1918,-549 1918,4 -4,4"/>
<!-- 0 -->
<g id="node1" class="node">
<title>0</title>
<path fill="none" stroke="#d88d56" stroke-width="2" d="M970,-36C970,-36 922,-36 922,-36 916,-36 910,-30 910,-24 910,-24 910,-12 910,-12 910,-6 916,0 922,0 922,0 970,0 970,0 976,0 982,-6 982,-12 982,-12 982,-24 982,-24 982,-30 976,-36 970,-36"/>
<text text-anchor="middle" x="946" y="-15.5" font-family="sans" font-size="10.00">GSEA_plots</text>
</g>
<!-- 1 -->
<g id="node2" class="node">
<title>1</title>
<path fill="none" stroke="#68d856" stroke-width="2" d="M609,-108C609,-108 493,-108 493,-108 487,-108 481,-102 481,-96 481,-96 481,-84 481,-84 481,-78 487,-72 493,-72 493,-72 609,-72 609,-72 615,-72 621,-78 621,-84 621,-84 621,-96 621,-96 621,-102 615,-108 609,-108"/>
<text text-anchor="middle" x="551" y="-87.5" font-family="sans" font-size="10.00">Immune_Term_Reduction</text>
</g>
<!-- 1&#45;&gt;0 -->
<g id="edge1" class="edge">
<title>1&#45;&gt;0</title>
<path fill="none" stroke="grey" stroke-width="2" d="M621.18,-73.72C624.16,-73.13 627.11,-72.55 630,-72 725.55,-53.72 838.02,-35.68 899.7,-26.08"/>
<polygon fill="grey" stroke="grey" stroke-width="2" points="900.54,-29.5 909.89,-24.51 899.47,-22.58 900.54,-29.5"/>
</g>
<!-- 2 -->
<g id="node3" class="node">
<title>2</title>
<path fill="none" stroke="#59d856" stroke-width="2" d="M609,-180C609,-180 579,-180 579,-180 573,-180 567,-174 567,-168 567,-168 567,-156 567,-156 567,-150 573,-144 579,-144 579,-144 609,-144 609,-144 615,-144 621,-150 621,-156 621,-156 621,-168 621,-168 621,-174 615,-180 609,-180"/>
<text text-anchor="middle" x="594" y="-159.5" font-family="sans" font-size="10.00">GSEA</text>
</g>
<!-- 2&#45;&gt;1 -->
<g id="edge7" class="edge">
<title>2&#45;&gt;1</title>
<path fill="none" stroke="grey" stroke-width="2" d="M583.37,-143.7C578.37,-135.56 572.31,-125.69 566.79,-116.7"/>
<polygon fill="grey" stroke="grey" stroke-width="2" points="569.72,-114.79 561.51,-108.1 563.76,-118.46 569.72,-114.79"/>
</g>
<!-- 3 -->
<g id="node4" class="node">
<title>3</title>
<path fill="none" stroke="#56d8c9" stroke-width="2" d="M653.5,-252C653.5,-252 584.5,-252 584.5,-252 578.5,-252 572.5,-246 572.5,-240 572.5,-240 572.5,-228 572.5,-228 572.5,-222 578.5,-216 584.5,-216 584.5,-216 653.5,-216 653.5,-216 659.5,-216 665.5,-222 665.5,-228 665.5,-228 665.5,-240 665.5,-240 665.5,-246 659.5,-252 653.5,-252"/>
<text text-anchor="middle" x="619" y="-237" font-family="sans" font-size="10.00">DESeq</text>
<text text-anchor="middle" x="619" y="-226" font-family="sans" font-size="10.00">diversity: Q0.00</text>
</g>
<!-- 3&#45;&gt;2 -->
<g id="edge8" class="edge">
<title>3&#45;&gt;2</title>
<path fill="none" stroke="grey" stroke-width="2" d="M612.82,-215.7C610,-207.81 606.61,-198.3 603.48,-189.55"/>
<polygon fill="grey" stroke="grey" stroke-width="2" points="606.77,-188.34 600.11,-180.1 600.18,-190.7 606.77,-188.34"/>
</g>
<!-- 4 -->
<g id="node5" class="node">
<title>4</title>
<path fill="none" stroke="#d6d856" stroke-width="2" d="M985.5,-324C985.5,-324 928.5,-324 928.5,-324 922.5,-324 916.5,-318 916.5,-312 916.5,-312 916.5,-300 916.5,-300 916.5,-294 922.5,-288 928.5,-288 928.5,-288 985.5,-288 985.5,-288 991.5,-288 997.5,-294 997.5,-300 997.5,-300 997.5,-312 997.5,-312 997.5,-318 991.5,-324 985.5,-324"/>
<text text-anchor="middle" x="957" y="-303.5" font-family="sans" font-size="10.00">count_matrix</text>
</g>
<!-- 4&#45;&gt;3 -->
<g id="edge9" class="edge">
<title>4&#45;&gt;3</title>
<path fill="none" stroke="grey" stroke-width="2" d="M916.23,-296.56C856.19,-284.12 743.77,-260.84 675.72,-246.75"/>
<polygon fill="grey" stroke="grey" stroke-width="2" points="676.1,-243.25 665.6,-244.65 674.68,-250.11 676.1,-243.25"/>
</g>
<!-- 52 -->
<g id="node53" class="node">
<title>52</title>
<path fill="none" stroke="#56d8c9" stroke-width="2" d="M801.5,-252C801.5,-252 732.5,-252 732.5,-252 726.5,-252 720.5,-246 720.5,-240 720.5,-240 720.5,-228 720.5,-228 720.5,-222 726.5,-216 732.5,-216 732.5,-216 801.5,-216 801.5,-216 807.5,-216 813.5,-222 813.5,-228 813.5,-228 813.5,-240 813.5,-240 813.5,-246 807.5,-252 801.5,-252"/>
<text text-anchor="middle" x="767" y="-237" font-family="sans" font-size="10.00">DESeq</text>
<text text-anchor="middle" x="767" y="-226" font-family="sans" font-size="10.00">diversity: Q1.00</text>
</g>
<!-- 4&#45;&gt;52 -->
<g id="edge70" class="edge">
<title>4&#45;&gt;52</title>
<path fill="none" stroke="grey" stroke-width="2" d="M916.24,-289.98C888.99,-279.94 852.77,-266.6 822.85,-255.58"/>
<polygon fill="grey" stroke="grey" stroke-width="2" points="823.96,-252.26 813.37,-252.08 821.54,-258.83 823.96,-252.26"/>
</g>
<!-- 55 -->
<g id="node56" class="node">
<title>55</title>
<path fill="none" stroke="#56d8c9" stroke-width="2" d="M930.5,-252C930.5,-252 861.5,-252 861.5,-252 855.5,-252 849.5,-246 849.5,-240 849.5,-240 849.5,-228 849.5,-228 849.5,-222 855.5,-216 861.5,-216 861.5,-216 930.5,-216 930.5,-216 936.5,-216 942.5,-222 942.5,-228 942.5,-228 942.5,-240 942.5,-240 942.5,-246 936.5,-252 930.5,-252"/>
<text text-anchor="middle" x="896" y="-237" font-family="sans" font-size="10.00">DESeq</text>
<text text-anchor="middle" x="896" y="-226" font-family="sans" font-size="10.00">diversity: Q1.50</text>
</g>
<!-- 4&#45;&gt;55 -->
<g id="edge73" class="edge">
<title>4&#45;&gt;55</title>
<path fill="none" stroke="grey" stroke-width="2" d="M941.92,-287.7C934.61,-279.3 925.69,-269.07 917.66,-259.86"/>
<polygon fill="grey" stroke="grey" stroke-width="2" points="920.11,-257.34 910.91,-252.1 914.84,-261.94 920.11,-257.34"/>
</g>
<!-- 58 -->
<g id="node59" class="node">
<title>58</title>
<path fill="none" stroke="#56d8c9" stroke-width="2" d="M1053.5,-252C1053.5,-252 984.5,-252 984.5,-252 978.5,-252 972.5,-246 972.5,-240 972.5,-240 972.5,-228 972.5,-228 972.5,-222 978.5,-216 984.5,-216 984.5,-216 1053.5,-216 1053.5,-216 1059.5,-216 1065.5,-222 1065.5,-228 1065.5,-228 1065.5,-240 1065.5,-240 1065.5,-246 1059.5,-252 1053.5,-252"/>
<text text-anchor="middle" x="1019" y="-237" font-family="sans" font-size="10.00">DESeq</text>
<text text-anchor="middle" x="1019" y="-226" font-family="sans" font-size="10.00">diversity: Q2.00</text>
</g>
<!-- 4&#45;&gt;58 -->
<g id="edge76" class="edge">
<title>4&#45;&gt;58</title>
<path fill="none" stroke="grey" stroke-width="2" d="M972.33,-287.7C979.76,-279.3 988.82,-269.07 996.98,-259.86"/>
<polygon fill="grey" stroke="grey" stroke-width="2" points="999.84,-261.91 1003.85,-252.1 994.6,-257.27 999.84,-261.91"/>
</g>
<!-- 61 -->
<g id="node62" class="node">
<title>61</title>
<path fill="none" stroke="#56d8c9" stroke-width="2" d="M1193.5,-252C1193.5,-252 1124.5,-252 1124.5,-252 1118.5,-252 1112.5,-246 1112.5,-240 1112.5,-240 1112.5,-228 1112.5,-228 1112.5,-222 1118.5,-216 1124.5,-216 1124.5,-216 1193.5,-216 1193.5,-216 1199.5,-216 1205.5,-222 1205.5,-228 1205.5,-228 1205.5,-240 1205.5,-240 1205.5,-246 1199.5,-252 1193.5,-252"/>
<text text-anchor="middle" x="1159" y="-237" font-family="sans" font-size="10.00">DESeq</text>
<text text-anchor="middle" x="1159" y="-226" font-family="sans" font-size="10.00">diversity: Q3.00</text>
</g>
<!-- 4&#45;&gt;61 -->
<g id="edge79" class="edge">
<title>4&#45;&gt;61</title>
<path fill="none" stroke="grey" stroke-width="2" d="M997.88,-290.83C1027.99,-280.4 1069.32,-266.08 1102.57,-254.55"/>
<polygon fill="grey" stroke="grey" stroke-width="2" points="1103.87,-257.81 1112.17,-251.23 1101.57,-251.2 1103.87,-257.81"/>
</g>
<!-- 64 -->
<g id="node65" class="node">
<title>64</title>
<path fill="none" stroke="#56d8c9" stroke-width="2" d="M1342.5,-252C1342.5,-252 1273.5,-252 1273.5,-252 1267.5,-252 1261.5,-246 1261.5,-240 1261.5,-240 1261.5,-228 1261.5,-228 1261.5,-222 1267.5,-216 1273.5,-216 1273.5,-216 1342.5,-216 1342.5,-216 1348.5,-216 1354.5,-222 1354.5,-228 1354.5,-228 1354.5,-240 1354.5,-240 1354.5,-246 1348.5,-252 1342.5,-252"/>
<text text-anchor="middle" x="1308" y="-237" font-family="sans" font-size="10.00">DESeq</text>
<text text-anchor="middle" x="1308" y="-226" font-family="sans" font-size="10.00">diversity: Q4.00</text>
</g>
<!-- 4&#45;&gt;64 -->
<g id="edge82" class="edge">
<title>4&#45;&gt;64</title>
<path fill="none" stroke="grey" stroke-width="2" d="M997.61,-296.9C1060.13,-284.43 1180.16,-260.49 1251.25,-246.32"/>
<polygon fill="grey" stroke="grey" stroke-width="2" points="1252.25,-249.69 1261.37,-244.3 1250.88,-242.82 1252.25,-249.69"/>
</g>
<!-- 5 -->
<g id="node6" class="node">
<title>5</title>
<path fill="none" stroke="#566bd8" stroke-width="2" d="M108,-401C108,-401 12,-401 12,-401 6,-401 0,-395 0,-389 0,-389 0,-372 0,-372 0,-366 6,-360 12,-360 12,-360 108,-360 108,-360 114,-360 120,-366 120,-372 120,-372 120,-389 120,-389 120,-395 114,-401 108,-401"/>
<text text-anchor="middle" x="60" y="-389" font-family="sans" font-size="10.00">align</text>
<text text-anchor="middle" x="60" y="-378" font-family="sans" font-size="10.00">sample: SRR5344335</text>
<text text-anchor="middle" x="60" y="-367" font-family="sans" font-size="10.00">unit: lane1</text>
</g>
<!-- 5&#45;&gt;4 -->
<g id="edge10" class="edge">
<title>5&#45;&gt;4</title>
<path fill="none" stroke="grey" stroke-width="2" d="M120.04,-361.73C123.06,-361.09 126.06,-360.5 129,-360 419.98,-310.15 775.75,-306.15 906.07,-306.54"/>
<polygon fill="grey" stroke="grey" stroke-width="2" points="906.14,-310.04 916.15,-306.58 906.17,-303.04 906.14,-310.04"/>
</g>
<!-- 6 -->
<g id="node7" class="node">
<title>6</title>
<path fill="none" stroke="#567bd8" stroke-width="2" d="M82.5,-473C82.5,-473 37.5,-473 37.5,-473 31.5,-473 25.5,-467 25.5,-461 25.5,-461 25.5,-449 25.5,-449 25.5,-443 31.5,-437 37.5,-437 37.5,-437 82.5,-437 82.5,-437 88.5,-437 94.5,-443 94.5,-449 94.5,-449 94.5,-461 94.5,-461 94.5,-467 88.5,-473 82.5,-473"/>
<text text-anchor="middle" x="60" y="-452.5" font-family="sans" font-size="10.00">fastqdump</text>
</g>
<!-- 6&#45;&gt;5 -->
<g id="edge24" class="edge">
<title>6&#45;&gt;5</title>
<path fill="none" stroke="grey" stroke-width="2" d="M60,-436.82C60,-429.2 60,-420 60,-411.32"/>
<polygon fill="grey" stroke="grey" stroke-width="2" points="63.5,-411.12 60,-401.12 56.5,-411.12 63.5,-411.12"/>
</g>
<!-- 7 -->
<g id="node8" class="node">
<title>7</title>
<path fill="none" stroke="#c6d856" stroke-width="2" d="M96.5,-545C96.5,-545 23.5,-545 23.5,-545 17.5,-545 11.5,-539 11.5,-533 11.5,-533 11.5,-521 11.5,-521 11.5,-515 17.5,-509 23.5,-509 23.5,-509 96.5,-509 96.5,-509 102.5,-509 108.5,-515 108.5,-521 108.5,-521 108.5,-533 108.5,-533 108.5,-539 102.5,-545 96.5,-545"/>
<text text-anchor="middle" x="60" y="-530" font-family="sans" font-size="10.00">prefetch</text>
<text text-anchor="middle" x="60" y="-519" font-family="sans" font-size="10.00">srr: SRR5344335</text>
</g>
<!-- 7&#45;&gt;6 -->
<g id="edge26" class="edge">
<title>7&#45;&gt;6</title>
<path fill="none" stroke="grey" stroke-width="2" d="M60,-508.7C60,-500.98 60,-491.71 60,-483.11"/>
<polygon fill="grey" stroke="grey" stroke-width="2" points="63.5,-483.1 60,-473.1 56.5,-483.1 63.5,-483.1"/>
</g>
<!-- 8 -->
<g id="node9" class="node">
<title>8</title>
<path fill="none" stroke="#d8a456" stroke-width="2" d="M943,-473C943,-473 899,-473 899,-473 893,-473 887,-467 887,-461 887,-461 887,-449 887,-449 887,-443 893,-437 899,-437 899,-437 943,-437 943,-437 949,-437 955,-443 955,-449 955,-449 955,-461 955,-461 955,-467 949,-473 943,-473"/>
<text text-anchor="middle" x="921" y="-452.5" font-family="sans" font-size="10.00">star_index</text>
</g>
<!-- 8&#45;&gt;5 -->
<g id="edge25" class="edge">
<title>8&#45;&gt;5</title>
<path fill="none" stroke="grey" stroke-width="2" d="M886.86,-443.2C877.88,-440.76 868.15,-438.46 859,-437 541.52,-386.27 451.41,-452.13 130.09,-400.96"/>
<polygon fill="grey" stroke="grey" stroke-width="2" points="130.46,-397.47 120.03,-399.33 129.34,-404.38 130.46,-397.47"/>
</g>
<!-- 11 -->
<g id="node12" class="node">
<title>11</title>
<path fill="none" stroke="#566bd8" stroke-width="2" d="M246,-401C246,-401 150,-401 150,-401 144,-401 138,-395 138,-389 138,-389 138,-372 138,-372 138,-366 144,-360 150,-360 150,-360 246,-360 246,-360 252,-360 258,-366 258,-372 258,-372 258,-389 258,-389 258,-395 252,-401 246,-401"/>
<text text-anchor="middle" x="198" y="-389" font-family="sans" font-size="10.00">align</text>
<text text-anchor="middle" x="198" y="-378" font-family="sans" font-size="10.00">sample: SRR5344336</text>
<text text-anchor="middle" x="198" y="-367" font-family="sans" font-size="10.00">unit: lane1</text>
</g>
<!-- 8&#45;&gt;11 -->
<g id="edge30" class="edge">
<title>8&#45;&gt;11</title>
<path fill="none" stroke="grey" stroke-width="2" d="M886.85,-443.28C877.87,-440.83 868.14,-438.51 859,-437 602.25,-394.46 528.74,-443.81 268.18,-400.98"/>
<polygon fill="grey" stroke="grey" stroke-width="2" points="268.48,-397.49 258.04,-399.29 267.32,-404.39 268.48,-397.49"/>
</g>
<!-- 14 -->
<g id="node15" class="node">
<title>14</title>
<path fill="none" stroke="#566bd8" stroke-width="2" d="M384,-401C384,-401 288,-401 288,-401 282,-401 276,-395 276,-389 276,-389 276,-372 276,-372 276,-366 282,-360 288,-360 288,-360 384,-360 384,-360 390,-360 396,-366 396,-372 396,-372 396,-389 396,-389 396,-395 390,-401 384,-401"/>
<text text-anchor="middle" x="336" y="-389" font-family="sans" font-size="10.00">align</text>
<text text-anchor="middle" x="336" y="-378" font-family="sans" font-size="10.00">sample: SRR5344337</text>
<text text-anchor="middle" x="336" y="-367" font-family="sans" font-size="10.00">unit: lane1</text>
</g>
<!-- 8&#45;&gt;14 -->
<g id="edge33" class="edge">
<title>8&#45;&gt;14</title>
<path fill="none" stroke="grey" stroke-width="2" d="M886.83,-443.39C877.85,-440.95 868.12,-438.6 859,-437 662.84,-402.65 606.06,-435.6 405.99,-400.98"/>
<polygon fill="grey" stroke="grey" stroke-width="2" points="406.5,-397.51 396.05,-399.22 405.29,-404.41 406.5,-397.51"/>
</g>
<!-- 17 -->
<g id="node18" class="node">
<title>17</title>
<path fill="none" stroke="#566bd8" stroke-width="2" d="M522,-401C522,-401 426,-401 426,-401 420,-401 414,-395 414,-389 414,-389 414,-372 414,-372 414,-366 420,-360 426,-360 426,-360 522,-360 522,-360 528,-360 534,-366 534,-372 534,-372 534,-389 534,-389 534,-395 528,-401 522,-401"/>
<text text-anchor="middle" x="474" y="-389" font-family="sans" font-size="10.00">align</text>
<text text-anchor="middle" x="474" y="-378" font-family="sans" font-size="10.00">sample: SRR5344338</text>
<text text-anchor="middle" x="474" y="-367" font-family="sans" font-size="10.00">unit: lane1</text>
</g>
<!-- 8&#45;&gt;17 -->
<g id="edge36" class="edge">
<title>8&#45;&gt;17</title>
<path fill="none" stroke="grey" stroke-width="2" d="M886.79,-443.61C877.81,-441.16 868.1,-438.75 859,-437 723.46,-410.86 683.55,-427.49 544.27,-401.07"/>
<polygon fill="grey" stroke="grey" stroke-width="2" points="544.56,-397.56 534.07,-399.1 543.22,-404.43 544.56,-397.56"/>
</g>
<!-- 20 -->
<g id="node21" class="node">
<title>20</title>
<path fill="none" stroke="#566bd8" stroke-width="2" d="M660,-401C660,-401 564,-401 564,-401 558,-401 552,-395 552,-389 552,-389 552,-372 552,-372 552,-366 558,-360 564,-360 564,-360 660,-360 660,-360 666,-360 672,-366 672,-372 672,-372 672,-389 672,-389 672,-395 666,-401 660,-401"/>
<text text-anchor="middle" x="612" y="-389" font-family="sans" font-size="10.00">align</text>
<text text-anchor="middle" x="612" y="-378" font-family="sans" font-size="10.00">sample: SRR5344340</text>
<text text-anchor="middle" x="612" y="-367" font-family="sans" font-size="10.00">unit: lane1</text>
</g>
<!-- 8&#45;&gt;20 -->
<g id="edge39" class="edge">
<title>8&#45;&gt;20</title>
<path fill="none" stroke="grey" stroke-width="2" d="M887,-444.23C877.93,-441.75 868.12,-439.17 859,-437 783.55,-419.05 761.18,-419.89 682.08,-401.17"/>
<polygon fill="grey" stroke="grey" stroke-width="2" points="682.68,-397.71 672.14,-398.79 681.05,-404.52 682.68,-397.71"/>
</g>
<!-- 23 -->
<g id="node24" class="node">
<title>23</title>
<path fill="none" stroke="#566bd8" stroke-width="2" d="M798,-401C798,-401 702,-401 702,-401 696,-401 690,-395 690,-389 690,-389 690,-372 690,-372 690,-366 696,-360 702,-360 702,-360 798,-360 798,-360 804,-360 810,-366 810,-372 810,-372 810,-389 810,-389 810,-395 804,-401 798,-401"/>
<text text-anchor="middle" x="750" y="-389" font-family="sans" font-size="10.00">align</text>
<text text-anchor="middle" x="750" y="-378" font-family="sans" font-size="10.00">sample: SRR5344341</text>
<text text-anchor="middle" x="750" y="-367" font-family="sans" font-size="10.00">unit: lane1</text>
</g>
<!-- 8&#45;&gt;23 -->
<g id="edge42" class="edge">
<title>8&#45;&gt;23</title>
<path fill="none" stroke="grey" stroke-width="2" d="M886.81,-439.5C863.53,-429.63 832.2,-416.35 805.39,-404.99"/>
<polygon fill="grey" stroke="grey" stroke-width="2" points="806.69,-401.74 796.12,-401.05 803.96,-408.18 806.69,-401.74"/>
</g>
<!-- 26 -->
<g id="node27" class="node">
<title>26</title>
<path fill="none" stroke="#566bd8" stroke-width="2" d="M936,-401C936,-401 840,-401 840,-401 834,-401 828,-395 828,-389 828,-389 828,-372 828,-372 828,-366 834,-360 840,-360 840,-360 936,-360 936,-360 942,-360 948,-366 948,-372 948,-372 948,-389 948,-389 948,-395 942,-401 936,-401"/>
<text text-anchor="middle" x="888" y="-389" font-family="sans" font-size="10.00">align</text>
<text text-anchor="middle" x="888" y="-378" font-family="sans" font-size="10.00">sample: SRR5344342</text>
<text text-anchor="middle" x="888" y="-367" font-family="sans" font-size="10.00">unit: lane1</text>
</g>
<!-- 8&#45;&gt;26 -->
<g id="edge45" class="edge">
<title>8&#45;&gt;26</title>
<path fill="none" stroke="grey" stroke-width="2" d="M913.18,-436.82C909.6,-428.95 905.25,-419.4 901.18,-410.46"/>
<polygon fill="grey" stroke="grey" stroke-width="2" points="904.26,-408.77 896.93,-401.12 897.89,-411.67 904.26,-408.77"/>
</g>
<!-- 29 -->
<g id="node30" class="node">
<title>29</title>
<path fill="none" stroke="#566bd8" stroke-width="2" d="M1074,-401C1074,-401 978,-401 978,-401 972,-401 966,-395 966,-389 966,-389 966,-372 966,-372 966,-366 972,-360 978,-360 978,-360 1074,-360 1074,-360 1080,-360 1086,-366 1086,-372 1086,-372 1086,-389 1086,-389 1086,-395 1080,-401 1074,-401"/>
<text text-anchor="middle" x="1026" y="-389" font-family="sans" font-size="10.00">align</text>
<text text-anchor="middle" x="1026" y="-378" font-family="sans" font-size="10.00">sample: SRR5344343</text>
<text text-anchor="middle" x="1026" y="-367" font-family="sans" font-size="10.00">unit: lane1</text>
</g>
<!-- 8&#45;&gt;29 -->
<g id="edge48" class="edge">
<title>8&#45;&gt;29</title>
<path fill="none" stroke="grey" stroke-width="2" d="M945.88,-436.82C958.74,-427.94 974.69,-416.93 988.96,-407.08"/>
<polygon fill="grey" stroke="grey" stroke-width="2" points="991.35,-409.68 997.59,-401.12 987.37,-403.92 991.35,-409.68"/>
</g>
<!-- 32 -->
<g id="node33" class="node">
<title>32</title>
<path fill="none" stroke="#566bd8" stroke-width="2" d="M1212,-401C1212,-401 1116,-401 1116,-401 1110,-401 1104,-395 1104,-389 1104,-389 1104,-372 1104,-372 1104,-366 1110,-360 1116,-360 1116,-360 1212,-360 1212,-360 1218,-360 1224,-366 1224,-372 1224,-372 1224,-389 1224,-389 1224,-395 1218,-401 1212,-401"/>
<text text-anchor="middle" x="1164" y="-389" font-family="sans" font-size="10.00">align</text>
<text text-anchor="middle" x="1164" y="-378" font-family="sans" font-size="10.00">sample: SRR5344344</text>
<text text-anchor="middle" x="1164" y="-367" font-family="sans" font-size="10.00">unit: lane1</text>
</g>
<!-- 8&#45;&gt;32 -->
<g id="edge51" class="edge">
<title>8&#45;&gt;32</title>
<path fill="none" stroke="grey" stroke-width="2" d="M955.04,-443.84C990.94,-433.13 1048.51,-415.96 1094.14,-402.34"/>
<polygon fill="grey" stroke="grey" stroke-width="2" points="1095.4,-405.62 1103.98,-399.41 1093.39,-398.91 1095.4,-405.62"/>
</g>
<!-- 35 -->
<g id="node36" class="node">
<title>35</title>
<path fill="none" stroke="#566bd8" stroke-width="2" d="M1350,-401C1350,-401 1254,-401 1254,-401 1248,-401 1242,-395 1242,-389 1242,-389 1242,-372 1242,-372 1242,-366 1248,-360 1254,-360 1254,-360 1350,-360 1350,-360 1356,-360 1362,-366 1362,-372 1362,-372 1362,-389 1362,-389 1362,-395 1356,-401 1350,-401"/>
<text text-anchor="middle" x="1302" y="-389" font-family="sans" font-size="10.00">align</text>
<text text-anchor="middle" x="1302" y="-378" font-family="sans" font-size="10.00">sample: SRR5344345</text>
<text text-anchor="middle" x="1302" y="-367" font-family="sans" font-size="10.00">unit: lane1</text>
</g>
<!-- 8&#45;&gt;35 -->
<g id="edge54" class="edge">
<title>8&#45;&gt;35</title>
<path fill="none" stroke="grey" stroke-width="2" d="M955.25,-447.03C971.25,-443.84 990.57,-440.1 1008,-437 1104.59,-419.84 1132.38,-422.61 1232.02,-401.09"/>
<polygon fill="grey" stroke="grey" stroke-width="2" points="1232.87,-404.49 1241.89,-398.93 1231.38,-397.65 1232.87,-404.49"/>
</g>
<!-- 38 -->
<g id="node39" class="node">
<title>38</title>
<path fill="none" stroke="#566bd8" stroke-width="2" d="M1488,-401C1488,-401 1392,-401 1392,-401 1386,-401 1380,-395 1380,-389 1380,-389 1380,-372 1380,-372 1380,-366 1386,-360 1392,-360 1392,-360 1488,-360 1488,-360 1494,-360 1500,-366 1500,-372 1500,-372 1500,-389 1500,-389 1500,-395 1494,-401 1488,-401"/>
<text text-anchor="middle" x="1440" y="-389" font-family="sans" font-size="10.00">align</text>
<text text-anchor="middle" x="1440" y="-378" font-family="sans" font-size="10.00">sample: SRR5344347</text>
<text text-anchor="middle" x="1440" y="-367" font-family="sans" font-size="10.00">unit: lane1</text>
</g>
<!-- 8&#45;&gt;38 -->
<g id="edge57" class="edge">
<title>8&#45;&gt;38</title>
<path fill="none" stroke="grey" stroke-width="2" d="M955.17,-446.55C971.16,-443.27 990.49,-439.57 1008,-437 1165.11,-413.91 1209.88,-430.45 1369.74,-401.06"/>
<polygon fill="grey" stroke="grey" stroke-width="2" points="1370.75,-404.43 1379.94,-399.15 1369.46,-397.55 1370.75,-404.43"/>
</g>
<!-- 41 -->
<g id="node42" class="node">
<title>41</title>
<path fill="none" stroke="#566bd8" stroke-width="2" d="M1626,-401C1626,-401 1530,-401 1530,-401 1524,-401 1518,-395 1518,-389 1518,-389 1518,-372 1518,-372 1518,-366 1524,-360 1530,-360 1530,-360 1626,-360 1626,-360 1632,-360 1638,-366 1638,-372 1638,-372 1638,-389 1638,-389 1638,-395 1632,-401 1626,-401"/>
<text text-anchor="middle" x="1578" y="-389" font-family="sans" font-size="10.00">align</text>
<text text-anchor="middle" x="1578" y="-378" font-family="sans" font-size="10.00">sample: SRR5344348</text>
<text text-anchor="middle" x="1578" y="-367" font-family="sans" font-size="10.00">unit: lane1</text>
</g>
<!-- 8&#45;&gt;41 -->
<g id="edge60" class="edge">
<title>8&#45;&gt;41</title>
<path fill="none" stroke="grey" stroke-width="2" d="M955.14,-446.34C971.12,-443 990.46,-439.34 1008,-437 1226.05,-407.97 1287.33,-438.63 1508.01,-400.97"/>
<polygon fill="grey" stroke="grey" stroke-width="2" points="1508.7,-404.4 1517.96,-399.25 1507.51,-397.51 1508.7,-404.4"/>
</g>
<!-- 44 -->
<g id="node45" class="node">
<title>44</title>
<path fill="none" stroke="#566bd8" stroke-width="2" d="M1764,-401C1764,-401 1668,-401 1668,-401 1662,-401 1656,-395 1656,-389 1656,-389 1656,-372 1656,-372 1656,-366 1662,-360 1668,-360 1668,-360 1764,-360 1764,-360 1770,-360 1776,-366 1776,-372 1776,-372 1776,-389 1776,-389 1776,-395 1770,-401 1764,-401"/>
<text text-anchor="middle" x="1716" y="-389" font-family="sans" font-size="10.00">align</text>
<text text-anchor="middle" x="1716" y="-378" font-family="sans" font-size="10.00">sample: SRR5344349</text>
<text text-anchor="middle" x="1716" y="-367" font-family="sans" font-size="10.00">unit: lane1</text>
</g>
<!-- 8&#45;&gt;44 -->
<g id="edge63" class="edge">
<title>8&#45;&gt;44</title>
<path fill="none" stroke="grey" stroke-width="2" d="M955.12,-446.21C971.1,-442.85 990.44,-439.2 1008,-437 1286.94,-402.06 1364.64,-446.89 1645.87,-400.97"/>
<polygon fill="grey" stroke="grey" stroke-width="2" points="1646.67,-404.39 1655.97,-399.3 1645.53,-397.48 1646.67,-404.39"/>
</g>
<!-- 47 -->
<g id="node48" class="node">
<title>47</title>
<path fill="none" stroke="#566bd8" stroke-width="2" d="M1902,-401C1902,-401 1806,-401 1806,-401 1800,-401 1794,-395 1794,-389 1794,-389 1794,-372 1794,-372 1794,-366 1800,-360 1806,-360 1806,-360 1902,-360 1902,-360 1908,-360 1914,-366 1914,-372 1914,-372 1914,-389 1914,-389 1914,-395 1908,-401 1902,-401"/>
<text text-anchor="middle" x="1854" y="-389" font-family="sans" font-size="10.00">align</text>
<text text-anchor="middle" x="1854" y="-378" font-family="sans" font-size="10.00">sample: SRR5344350</text>
<text text-anchor="middle" x="1854" y="-367" font-family="sans" font-size="10.00">unit: lane1</text>
</g>
<!-- 8&#45;&gt;47 -->
<g id="edge66" class="edge">
<title>8&#45;&gt;47</title>
<path fill="none" stroke="grey" stroke-width="2" d="M955.11,-446.13C971.09,-442.76 990.43,-439.11 1008,-437 1347.96,-396.13 1441.97,-455.23 1784.04,-400.94"/>
<polygon fill="grey" stroke="grey" stroke-width="2" points="1784.65,-404.38 1793.97,-399.34 1783.54,-397.47 1784.65,-404.38"/>
</g>
<!-- 9 -->
<g id="node10" class="node">
<title>9</title>
<path fill="none" stroke="#d8c356" stroke-width="2" d="M929.5,-545C929.5,-545 876.5,-545 876.5,-545 870.5,-545 864.5,-539 864.5,-533 864.5,-533 864.5,-521 864.5,-521 864.5,-515 870.5,-509 876.5,-509 876.5,-509 929.5,-509 929.5,-509 935.5,-509 941.5,-515 941.5,-521 941.5,-521 941.5,-533 941.5,-533 941.5,-539 935.5,-545 929.5,-545"/>
<text text-anchor="middle" x="903" y="-524.5" font-family="sans" font-size="10.00">get_genome</text>
</g>
<!-- 9&#45;&gt;8 -->
<g id="edge27" class="edge">
<title>9&#45;&gt;8</title>
<path fill="none" stroke="grey" stroke-width="2" d="M907.45,-508.7C909.45,-500.9 911.87,-491.51 914.1,-482.83"/>
<polygon fill="grey" stroke="grey" stroke-width="2" points="917.5,-483.66 916.6,-473.1 910.72,-481.92 917.5,-483.66"/>
</g>
<!-- 10 -->
<g id="node11" class="node">
<title>10</title>
<path fill="none" stroke="#56d8a2" stroke-width="2" d="M1038,-545C1038,-545 972,-545 972,-545 966,-545 960,-539 960,-533 960,-533 960,-521 960,-521 960,-515 966,-509 972,-509 972,-509 1038,-509 1038,-509 1044,-509 1050,-515 1050,-521 1050,-521 1050,-533 1050,-533 1050,-539 1044,-545 1038,-545"/>
<text text-anchor="middle" x="1005" y="-524.5" font-family="sans" font-size="10.00">get_annotation</text>
</g>
<!-- 10&#45;&gt;8 -->
<g id="edge28" class="edge">
<title>10&#45;&gt;8</title>
<path fill="none" stroke="grey" stroke-width="2" d="M984.24,-508.7C973.76,-499.97 960.89,-489.24 949.5,-479.75"/>
<polygon fill="grey" stroke="grey" stroke-width="2" points="951.45,-476.82 941.53,-473.1 946.97,-482.19 951.45,-476.82"/>
</g>
<!-- 11&#45;&gt;4 -->
<g id="edge11" class="edge">
<title>11&#45;&gt;4</title>
<path fill="none" stroke="grey" stroke-width="2" d="M258.05,-361.77C261.06,-361.12 264.06,-360.52 267,-360 503.3,-317.97 790.96,-309.26 905.95,-307.46"/>
<polygon fill="grey" stroke="grey" stroke-width="2" points="906.26,-310.96 916.2,-307.32 906.15,-303.96 906.26,-310.96"/>
</g>
<!-- 12 -->
<g id="node13" class="node">
<title>12</title>
<path fill="none" stroke="#567bd8" stroke-width="2" d="M220.5,-473C220.5,-473 175.5,-473 175.5,-473 169.5,-473 163.5,-467 163.5,-461 163.5,-461 163.5,-449 163.5,-449 163.5,-443 169.5,-437 175.5,-437 175.5,-437 220.5,-437 220.5,-437 226.5,-437 232.5,-443 232.5,-449 232.5,-449 232.5,-461 232.5,-461 232.5,-467 226.5,-473 220.5,-473"/>
<text text-anchor="middle" x="198" y="-452.5" font-family="sans" font-size="10.00">fastqdump</text>
</g>
<!-- 12&#45;&gt;11 -->
<g id="edge29" class="edge">
<title>12&#45;&gt;11</title>
<path fill="none" stroke="grey" stroke-width="2" d="M198,-436.82C198,-429.2 198,-420 198,-411.32"/>
<polygon fill="grey" stroke="grey" stroke-width="2" points="201.5,-411.12 198,-401.12 194.5,-411.12 201.5,-411.12"/>
</g>
<!-- 13 -->
<g id="node14" class="node">
<title>13</title>
<path fill="none" stroke="#c6d856" stroke-width="2" d="M234.5,-545C234.5,-545 161.5,-545 161.5,-545 155.5,-545 149.5,-539 149.5,-533 149.5,-533 149.5,-521 149.5,-521 149.5,-515 155.5,-509 161.5,-509 161.5,-509 234.5,-509 234.5,-509 240.5,-509 246.5,-515 246.5,-521 246.5,-521 246.5,-533 246.5,-533 246.5,-539 240.5,-545 234.5,-545"/>
<text text-anchor="middle" x="198" y="-530" font-family="sans" font-size="10.00">prefetch</text>
<text text-anchor="middle" x="198" y="-519" font-family="sans" font-size="10.00">srr: SRR5344336</text>
</g>
<!-- 13&#45;&gt;12 -->
<g id="edge31" class="edge">
<title>13&#45;&gt;12</title>
<path fill="none" stroke="grey" stroke-width="2" d="M198,-508.7C198,-500.98 198,-491.71 198,-483.11"/>
<polygon fill="grey" stroke="grey" stroke-width="2" points="201.5,-483.1 198,-473.1 194.5,-483.1 201.5,-483.1"/>
</g>
<!-- 14&#45;&gt;4 -->
<g id="edge12" class="edge">
<title>14&#45;&gt;4</title>
<path fill="none" stroke="grey" stroke-width="2" d="M396.06,-361.84C399.07,-361.17 402.06,-360.55 405,-360 587.59,-325.72 808.55,-313.01 906.29,-308.82"/>
<polygon fill="grey" stroke="grey" stroke-width="2" points="906.63,-312.31 916.48,-308.4 906.34,-305.32 906.63,-312.31"/>
</g>
<!-- 15 -->
<g id="node16" class="node">
<title>15</title>
<path fill="none" stroke="#567bd8" stroke-width="2" d="M358.5,-473C358.5,-473 313.5,-473 313.5,-473 307.5,-473 301.5,-467 301.5,-461 301.5,-461 301.5,-449 301.5,-449 301.5,-443 307.5,-437 313.5,-437 313.5,-437 358.5,-437 358.5,-437 364.5,-437 370.5,-443 370.5,-449 370.5,-449 370.5,-461 370.5,-461 370.5,-467 364.5,-473 358.5,-473"/>
<text text-anchor="middle" x="336" y="-452.5" font-family="sans" font-size="10.00">fastqdump</text>
</g>
<!-- 15&#45;&gt;14 -->
<g id="edge32" class="edge">
<title>15&#45;&gt;14</title>
<path fill="none" stroke="grey" stroke-width="2" d="M336,-436.82C336,-429.2 336,-420 336,-411.32"/>
<polygon fill="grey" stroke="grey" stroke-width="2" points="339.5,-411.12 336,-401.12 332.5,-411.12 339.5,-411.12"/>
</g>
<!-- 16 -->
<g id="node17" class="node">
<title>16</title>
<path fill="none" stroke="#c6d856" stroke-width="2" d="M372.5,-545C372.5,-545 299.5,-545 299.5,-545 293.5,-545 287.5,-539 287.5,-533 287.5,-533 287.5,-521 287.5,-521 287.5,-515 293.5,-509 299.5,-509 299.5,-509 372.5,-509 372.5,-509 378.5,-509 384.5,-515 384.5,-521 384.5,-521 384.5,-533 384.5,-533 384.5,-539 378.5,-545 372.5,-545"/>
<text text-anchor="middle" x="336" y="-530" font-family="sans" font-size="10.00">prefetch</text>
<text text-anchor="middle" x="336" y="-519" font-family="sans" font-size="10.00">srr: SRR5344337</text>
</g>
<!-- 16&#45;&gt;15 -->
<g id="edge34" class="edge">
<title>16&#45;&gt;15</title>
<path fill="none" stroke="grey" stroke-width="2" d="M336,-508.7C336,-500.98 336,-491.71 336,-483.11"/>
<polygon fill="grey" stroke="grey" stroke-width="2" points="339.5,-483.1 336,-473.1 332.5,-483.1 339.5,-483.1"/>
</g>
<!-- 17&#45;&gt;4 -->
<g id="edge13" class="edge">
<title>17&#45;&gt;4</title>
<path fill="none" stroke="grey" stroke-width="2" d="M534.08,-361.95C537.09,-361.25 540.07,-360.6 543,-360 672.61,-333.54 827.89,-317.87 906.33,-311.05"/>
<polygon fill="grey" stroke="grey" stroke-width="2" points="906.75,-314.53 916.42,-310.19 906.16,-307.55 906.75,-314.53"/>
</g>
<!-- 18 -->
<g id="node19" class="node">
<title>18</title>
<path fill="none" stroke="#567bd8" stroke-width="2" d="M485.5,-473C485.5,-473 440.5,-473 440.5,-473 434.5,-473 428.5,-467 428.5,-461 428.5,-461 428.5,-449 428.5,-449 428.5,-443 434.5,-437 440.5,-437 440.5,-437 485.5,-437 485.5,-437 491.5,-437 497.5,-443 497.5,-449 497.5,-449 497.5,-461 497.5,-461 497.5,-467 491.5,-473 485.5,-473"/>
<text text-anchor="middle" x="463" y="-452.5" font-family="sans" font-size="10.00">fastqdump</text>
</g>
<!-- 18&#45;&gt;17 -->
<g id="edge35" class="edge">
<title>18&#45;&gt;17</title>
<path fill="none" stroke="grey" stroke-width="2" d="M465.61,-436.82C466.78,-429.11 468.19,-419.8 469.52,-411.03"/>
<polygon fill="grey" stroke="grey" stroke-width="2" points="472.98,-411.53 471.02,-401.12 466.06,-410.48 472.98,-411.53"/>
</g>
<!-- 19 -->
<g id="node20" class="node">
<title>19</title>
<path fill="none" stroke="#c6d856" stroke-width="2" d="M489.5,-545C489.5,-545 416.5,-545 416.5,-545 410.5,-545 404.5,-539 404.5,-533 404.5,-533 404.5,-521 404.5,-521 404.5,-515 410.5,-509 416.5,-509 416.5,-509 489.5,-509 489.5,-509 495.5,-509 501.5,-515 501.5,-521 501.5,-521 501.5,-533 501.5,-533 501.5,-539 495.5,-545 489.5,-545"/>
<text text-anchor="middle" x="453" y="-530" font-family="sans" font-size="10.00">prefetch</text>
<text text-anchor="middle" x="453" y="-519" font-family="sans" font-size="10.00">srr: SRR5344338</text>
</g>
<!-- 19&#45;&gt;18 -->
<g id="edge37" class="edge">
<title>19&#45;&gt;18</title>
<path fill="none" stroke="grey" stroke-width="2" d="M455.47,-508.7C456.57,-500.98 457.9,-491.71 459.13,-483.11"/>
<polygon fill="grey" stroke="grey" stroke-width="2" points="462.61,-483.5 460.56,-473.1 455.68,-482.51 462.61,-483.5"/>
</g>
<!-- 20&#45;&gt;4 -->
<g id="edge14" class="edge">
<title>20&#45;&gt;4</title>
<path fill="none" stroke="grey" stroke-width="2" d="M672.13,-362.18C675.12,-361.42 678.09,-360.69 681,-360 759,-341.53 850.54,-324.94 906.13,-315.42"/>
<polygon fill="grey" stroke="grey" stroke-width="2" points="906.81,-318.86 916.08,-313.73 905.64,-311.96 906.81,-318.86"/>
</g>
<!-- 21 -->
<g id="node22" class="node">
<title>21</title>
<path fill="none" stroke="#567bd8" stroke-width="2" d="M604.5,-473C604.5,-473 559.5,-473 559.5,-473 553.5,-473 547.5,-467 547.5,-461 547.5,-461 547.5,-449 547.5,-449 547.5,-443 553.5,-437 559.5,-437 559.5,-437 604.5,-437 604.5,-437 610.5,-437 616.5,-443 616.5,-449 616.5,-449 616.5,-461 616.5,-461 616.5,-467 610.5,-473 604.5,-473"/>
<text text-anchor="middle" x="582" y="-452.5" font-family="sans" font-size="10.00">fastqdump</text>
</g>
<!-- 21&#45;&gt;20 -->
<g id="edge38" class="edge">
<title>21&#45;&gt;20</title>
<path fill="none" stroke="grey" stroke-width="2" d="M589.11,-436.82C592.37,-428.95 596.32,-419.4 600.02,-410.46"/>
<polygon fill="grey" stroke="grey" stroke-width="2" points="603.29,-411.7 603.88,-401.12 596.82,-409.02 603.29,-411.7"/>
</g>
<!-- 22 -->
<g id="node23" class="node">
<title>22</title>
<path fill="none" stroke="#c6d856" stroke-width="2" d="M604.5,-545C604.5,-545 531.5,-545 531.5,-545 525.5,-545 519.5,-539 519.5,-533 519.5,-533 519.5,-521 519.5,-521 519.5,-515 525.5,-509 531.5,-509 531.5,-509 604.5,-509 604.5,-509 610.5,-509 616.5,-515 616.5,-521 616.5,-521 616.5,-533 616.5,-533 616.5,-539 610.5,-545 604.5,-545"/>
<text text-anchor="middle" x="568" y="-530" font-family="sans" font-size="10.00">prefetch</text>
<text text-anchor="middle" x="568" y="-519" font-family="sans" font-size="10.00">srr: SRR5344340</text>
</g>
<!-- 22&#45;&gt;21 -->
<g id="edge40" class="edge">
<title>22&#45;&gt;21</title>
<path fill="none" stroke="grey" stroke-width="2" d="M571.46,-508.7C573,-500.98 574.86,-491.71 576.58,-483.11"/>
<polygon fill="grey" stroke="grey" stroke-width="2" points="580.05,-483.6 578.58,-473.1 573.19,-482.22 580.05,-483.6"/>
</g>
<!-- 23&#45;&gt;4 -->
<g id="edge15" class="edge">
<title>23&#45;&gt;4</title>
<path fill="none" stroke="grey" stroke-width="2" d="M805.74,-359.98C837.19,-348.96 876.16,-335.31 906.67,-324.63"/>
<polygon fill="grey" stroke="grey" stroke-width="2" points="907.98,-327.88 916.26,-321.27 905.67,-321.27 907.98,-327.88"/>
</g>
<!-- 24 -->
<g id="node25" class="node">
<title>24</title>
<path fill="none" stroke="#567bd8" stroke-width="2" d="M719.5,-473C719.5,-473 674.5,-473 674.5,-473 668.5,-473 662.5,-467 662.5,-461 662.5,-461 662.5,-449 662.5,-449 662.5,-443 668.5,-437 674.5,-437 674.5,-437 719.5,-437 719.5,-437 725.5,-437 731.5,-443 731.5,-449 731.5,-449 731.5,-461 731.5,-461 731.5,-467 725.5,-473 719.5,-473"/>
<text text-anchor="middle" x="697" y="-452.5" font-family="sans" font-size="10.00">fastqdump</text>
</g>
<!-- 24&#45;&gt;23 -->
<g id="edge41" class="edge">
<title>24&#45;&gt;23</title>
<path fill="none" stroke="grey" stroke-width="2" d="M709.56,-436.82C715.56,-428.61 722.89,-418.58 729.66,-409.33"/>
<polygon fill="grey" stroke="grey" stroke-width="2" points="732.58,-411.26 735.66,-401.12 726.93,-407.13 732.58,-411.26"/>
</g>
<!-- 25 -->
<g id="node26" class="node">
<title>25</title>
<path fill="none" stroke="#c6d856" stroke-width="2" d="M719.5,-545C719.5,-545 646.5,-545 646.5,-545 640.5,-545 634.5,-539 634.5,-533 634.5,-533 634.5,-521 634.5,-521 634.5,-515 640.5,-509 646.5,-509 646.5,-509 719.5,-509 719.5,-509 725.5,-509 731.5,-515 731.5,-521 731.5,-521 731.5,-533 731.5,-533 731.5,-539 725.5,-545 719.5,-545"/>
<text text-anchor="middle" x="683" y="-530" font-family="sans" font-size="10.00">prefetch</text>
<text text-anchor="middle" x="683" y="-519" font-family="sans" font-size="10.00">srr: SRR5344341</text>
</g>
<!-- 25&#45;&gt;24 -->
<g id="edge43" class="edge">
<title>25&#45;&gt;24</title>
<path fill="none" stroke="grey" stroke-width="2" d="M686.46,-508.7C688,-500.98 689.86,-491.71 691.58,-483.11"/>
<polygon fill="grey" stroke="grey" stroke-width="2" points="695.05,-483.6 693.58,-473.1 688.19,-482.22 695.05,-483.6"/>
</g>
<!-- 26&#45;&gt;4 -->
<g id="edge16" class="edge">
<title>26&#45;&gt;4</title>
<path fill="none" stroke="grey" stroke-width="2" d="M906.85,-359.69C915.08,-351.04 924.82,-340.81 933.51,-331.68"/>
<polygon fill="grey" stroke="grey" stroke-width="2" points="936.16,-333.98 940.52,-324.32 931.09,-329.15 936.16,-333.98"/>
</g>
<!-- 27 -->
<g id="node28" class="node">
<title>27</title>
<path fill="none" stroke="#567bd8" stroke-width="2" d="M838.5,-473C838.5,-473 793.5,-473 793.5,-473 787.5,-473 781.5,-467 781.5,-461 781.5,-461 781.5,-449 781.5,-449 781.5,-443 787.5,-437 793.5,-437 793.5,-437 838.5,-437 838.5,-437 844.5,-437 850.5,-443 850.5,-449 850.5,-449 850.5,-461 850.5,-461 850.5,-467 844.5,-473 838.5,-473"/>
<text text-anchor="middle" x="816" y="-452.5" font-family="sans" font-size="10.00">fastqdump</text>
</g>
<!-- 27&#45;&gt;26 -->
<g id="edge44" class="edge">
<title>27&#45;&gt;26</title>
<path fill="none" stroke="grey" stroke-width="2" d="M833.06,-436.82C841.46,-428.36 851.79,-417.97 861.21,-408.48"/>
<polygon fill="grey" stroke="grey" stroke-width="2" points="863.95,-410.68 868.52,-401.12 858.99,-405.75 863.95,-410.68"/>
</g>
<!-- 28 -->
<g id="node29" class="node">
<title>28</title>
<path fill="none" stroke="#c6d856" stroke-width="2" d="M834.5,-545C834.5,-545 761.5,-545 761.5,-545 755.5,-545 749.5,-539 749.5,-533 749.5,-533 749.5,-521 749.5,-521 749.5,-515 755.5,-509 761.5,-509 761.5,-509 834.5,-509 834.5,-509 840.5,-509 846.5,-515 846.5,-521 846.5,-521 846.5,-533 846.5,-533 846.5,-539 840.5,-545 834.5,-545"/>
<text text-anchor="middle" x="798" y="-530" font-family="sans" font-size="10.00">prefetch</text>
<text text-anchor="middle" x="798" y="-519" font-family="sans" font-size="10.00">srr: SRR5344342</text>
</g>
<!-- 28&#45;&gt;27 -->
<g id="edge46" class="edge">
<title>28&#45;&gt;27</title>
<path fill="none" stroke="grey" stroke-width="2" d="M802.45,-508.7C804.45,-500.9 806.87,-491.51 809.1,-482.83"/>
<polygon fill="grey" stroke="grey" stroke-width="2" points="812.5,-483.66 811.6,-473.1 805.72,-481.92 812.5,-483.66"/>
</g>
<!-- 29&#45;&gt;4 -->
<g id="edge17" class="edge">
<title>29&#45;&gt;4</title>
<path fill="none" stroke="grey" stroke-width="2" d="M1007.15,-359.69C998.92,-351.04 989.18,-340.81 980.49,-331.68"/>
<polygon fill="grey" stroke="grey" stroke-width="2" points="982.91,-329.15 973.48,-324.32 977.84,-333.98 982.91,-329.15"/>
</g>
<!-- 30 -->
<g id="node31" class="node">
<title>30</title>
<path fill="none" stroke="#567bd8" stroke-width="2" d="M1073.5,-473C1073.5,-473 1028.5,-473 1028.5,-473 1022.5,-473 1016.5,-467 1016.5,-461 1016.5,-461 1016.5,-449 1016.5,-449 1016.5,-443 1022.5,-437 1028.5,-437 1028.5,-437 1073.5,-437 1073.5,-437 1079.5,-437 1085.5,-443 1085.5,-449 1085.5,-449 1085.5,-461 1085.5,-461 1085.5,-467 1079.5,-473 1073.5,-473"/>
<text text-anchor="middle" x="1051" y="-452.5" font-family="sans" font-size="10.00">fastqdump</text>
</g>
<!-- 30&#45;&gt;29 -->
<g id="edge47" class="edge">
<title>30&#45;&gt;29</title>
<path fill="none" stroke="grey" stroke-width="2" d="M1045.08,-436.82C1042.39,-429.03 1039.14,-419.6 1036.09,-410.75"/>
<polygon fill="grey" stroke="grey" stroke-width="2" points="1039.33,-409.43 1032.77,-401.12 1032.72,-411.71 1039.33,-409.43"/>
</g>
<!-- 31 -->
<g id="node32" class="node">
<title>31</title>
<path fill="none" stroke="#c6d856" stroke-width="2" d="M1153.5,-545C1153.5,-545 1080.5,-545 1080.5,-545 1074.5,-545 1068.5,-539 1068.5,-533 1068.5,-533 1068.5,-521 1068.5,-521 1068.5,-515 1074.5,-509 1080.5,-509 1080.5,-509 1153.5,-509 1153.5,-509 1159.5,-509 1165.5,-515 1165.5,-521 1165.5,-521 1165.5,-533 1165.5,-533 1165.5,-539 1159.5,-545 1153.5,-545"/>
<text text-anchor="middle" x="1117" y="-530" font-family="sans" font-size="10.00">prefetch</text>
<text text-anchor="middle" x="1117" y="-519" font-family="sans" font-size="10.00">srr: SRR5344343</text>
</g>
<!-- 31&#45;&gt;30 -->
<g id="edge49" class="edge">
<title>31&#45;&gt;30</title>
<path fill="none" stroke="grey" stroke-width="2" d="M1100.69,-508.7C1092.69,-500.22 1082.93,-489.86 1074.18,-480.58"/>
<polygon fill="grey" stroke="grey" stroke-width="2" points="1076.53,-477.98 1067.13,-473.1 1071.44,-482.78 1076.53,-477.98"/>
</g>
<!-- 32&#45;&gt;4 -->
<g id="edge18" class="edge">
<title>32&#45;&gt;4</title>
<path fill="none" stroke="grey" stroke-width="2" d="M1108.26,-359.98C1076.81,-348.96 1037.84,-335.31 1007.33,-324.63"/>
<polygon fill="grey" stroke="grey" stroke-width="2" points="1008.33,-321.27 997.74,-321.27 1006.02,-327.88 1008.33,-321.27"/>
</g>
<!-- 33 -->
<g id="node34" class="node">
<title>33</title>
<path fill="none" stroke="#567bd8" stroke-width="2" d="M1211.5,-473C1211.5,-473 1166.5,-473 1166.5,-473 1160.5,-473 1154.5,-467 1154.5,-461 1154.5,-461 1154.5,-449 1154.5,-449 1154.5,-443 1160.5,-437 1166.5,-437 1166.5,-437 1211.5,-437 1211.5,-437 1217.5,-437 1223.5,-443 1223.5,-449 1223.5,-449 1223.5,-461 1223.5,-461 1223.5,-467 1217.5,-473 1211.5,-473"/>
<text text-anchor="middle" x="1189" y="-452.5" font-family="sans" font-size="10.00">fastqdump</text>
</g>
<!-- 33&#45;&gt;32 -->
<g id="edge50" class="edge">
<title>33&#45;&gt;32</title>
<path fill="none" stroke="grey" stroke-width="2" d="M1183.08,-436.82C1180.39,-429.03 1177.14,-419.6 1174.09,-410.75"/>
<polygon fill="grey" stroke="grey" stroke-width="2" points="1177.33,-409.43 1170.77,-401.12 1170.72,-411.71 1177.33,-409.43"/>
</g>
<!-- 34 -->
<g id="node35" class="node">
<title>34</title>
<path fill="none" stroke="#c6d856" stroke-width="2" d="M1268.5,-545C1268.5,-545 1195.5,-545 1195.5,-545 1189.5,-545 1183.5,-539 1183.5,-533 1183.5,-533 1183.5,-521 1183.5,-521 1183.5,-515 1189.5,-509 1195.5,-509 1195.5,-509 1268.5,-509 1268.5,-509 1274.5,-509 1280.5,-515 1280.5,-521 1280.5,-521 1280.5,-533 1280.5,-533 1280.5,-539 1274.5,-545 1268.5,-545"/>
<text text-anchor="middle" x="1232" y="-530" font-family="sans" font-size="10.00">prefetch</text>
<text text-anchor="middle" x="1232" y="-519" font-family="sans" font-size="10.00">srr: SRR5344344</text>
</g>
<!-- 34&#45;&gt;33 -->
<g id="edge52" class="edge">
<title>34&#45;&gt;33</title>
<path fill="none" stroke="grey" stroke-width="2" d="M1221.37,-508.7C1216.37,-500.56 1210.31,-490.69 1204.79,-481.7"/>
<polygon fill="grey" stroke="grey" stroke-width="2" points="1207.72,-479.79 1199.51,-473.1 1201.76,-483.46 1207.72,-479.79"/>
</g>
<!-- 35&#45;&gt;4 -->
<g id="edge19" class="edge">
<title>35&#45;&gt;4</title>
<path fill="none" stroke="grey" stroke-width="2" d="M1241.87,-362.18C1238.88,-361.42 1235.91,-360.69 1233,-360 1155,-341.53 1063.46,-324.94 1007.87,-315.42"/>
<polygon fill="grey" stroke="grey" stroke-width="2" points="1008.36,-311.96 997.92,-313.73 1007.19,-318.86 1008.36,-311.96"/>
</g>
<!-- 36 -->
<g id="node37" class="node">
<title>36</title>
<path fill="none" stroke="#567bd8" stroke-width="2" d="M1346.5,-473C1346.5,-473 1301.5,-473 1301.5,-473 1295.5,-473 1289.5,-467 1289.5,-461 1289.5,-461 1289.5,-449 1289.5,-449 1289.5,-443 1295.5,-437 1301.5,-437 1301.5,-437 1346.5,-437 1346.5,-437 1352.5,-437 1358.5,-443 1358.5,-449 1358.5,-449 1358.5,-461 1358.5,-461 1358.5,-467 1352.5,-473 1346.5,-473"/>
<text text-anchor="middle" x="1324" y="-452.5" font-family="sans" font-size="10.00">fastqdump</text>
</g>
<!-- 36&#45;&gt;35 -->
<g id="edge53" class="edge">
<title>36&#45;&gt;35</title>
<path fill="none" stroke="grey" stroke-width="2" d="M1318.79,-436.82C1316.42,-429.03 1313.56,-419.6 1310.88,-410.75"/>
<polygon fill="grey" stroke="grey" stroke-width="2" points="1314.21,-409.67 1307.95,-401.12 1307.51,-411.71 1314.21,-409.67"/>
</g>
<!-- 37 -->
<g id="node38" class="node">
<title>37</title>
<path fill="none" stroke="#c6d856" stroke-width="2" d="M1383.5,-545C1383.5,-545 1310.5,-545 1310.5,-545 1304.5,-545 1298.5,-539 1298.5,-533 1298.5,-533 1298.5,-521 1298.5,-521 1298.5,-515 1304.5,-509 1310.5,-509 1310.5,-509 1383.5,-509 1383.5,-509 1389.5,-509 1395.5,-515 1395.5,-521 1395.5,-521 1395.5,-533 1395.5,-533 1395.5,-539 1389.5,-545 1383.5,-545"/>
<text text-anchor="middle" x="1347" y="-530" font-family="sans" font-size="10.00">prefetch</text>
<text text-anchor="middle" x="1347" y="-519" font-family="sans" font-size="10.00">srr: SRR5344345</text>
</g>
<!-- 37&#45;&gt;36 -->
<g id="edge55" class="edge">
<title>37&#45;&gt;36</title>
<path fill="none" stroke="grey" stroke-width="2" d="M1341.31,-508.7C1338.75,-500.9 1335.67,-491.51 1332.82,-482.83"/>
<polygon fill="grey" stroke="grey" stroke-width="2" points="1336.07,-481.51 1329.62,-473.1 1329.42,-483.7 1336.07,-481.51"/>
</g>
<!-- 38&#45;&gt;4 -->
<g id="edge20" class="edge">
<title>38&#45;&gt;4</title>
<path fill="none" stroke="grey" stroke-width="2" d="M1379.92,-361.95C1376.91,-361.25 1373.93,-360.6 1371,-360 1241.39,-333.54 1086.11,-317.87 1007.67,-311.05"/>
<polygon fill="grey" stroke="grey" stroke-width="2" points="1007.84,-307.55 997.58,-310.19 1007.25,-314.53 1007.84,-307.55"/>
</g>
<!-- 39 -->
<g id="node40" class="node">
<title>39</title>
<path fill="none" stroke="#567bd8" stroke-width="2" d="M1473.5,-473C1473.5,-473 1428.5,-473 1428.5,-473 1422.5,-473 1416.5,-467 1416.5,-461 1416.5,-461 1416.5,-449 1416.5,-449 1416.5,-443 1422.5,-437 1428.5,-437 1428.5,-437 1473.5,-437 1473.5,-437 1479.5,-437 1485.5,-443 1485.5,-449 1485.5,-449 1485.5,-461 1485.5,-461 1485.5,-467 1479.5,-473 1473.5,-473"/>
<text text-anchor="middle" x="1451" y="-452.5" font-family="sans" font-size="10.00">fastqdump</text>
</g>
<!-- 39&#45;&gt;38 -->
<g id="edge56" class="edge">
<title>39&#45;&gt;38</title>
<path fill="none" stroke="grey" stroke-width="2" d="M1448.39,-436.82C1447.22,-429.11 1445.81,-419.8 1444.48,-411.03"/>
<polygon fill="grey" stroke="grey" stroke-width="2" points="1447.94,-410.48 1442.98,-401.12 1441.02,-411.53 1447.94,-410.48"/>
</g>
<!-- 40 -->
<g id="node41" class="node">
<title>40</title>
<path fill="none" stroke="#c6d856" stroke-width="2" d="M1498.5,-545C1498.5,-545 1425.5,-545 1425.5,-545 1419.5,-545 1413.5,-539 1413.5,-533 1413.5,-533 1413.5,-521 1413.5,-521 1413.5,-515 1419.5,-509 1425.5,-509 1425.5,-509 1498.5,-509 1498.5,-509 1504.5,-509 1510.5,-515 1510.5,-521 1510.5,-521 1510.5,-533 1510.5,-533 1510.5,-539 1504.5,-545 1498.5,-545"/>
<text text-anchor="middle" x="1462" y="-530" font-family="sans" font-size="10.00">prefetch</text>
<text text-anchor="middle" x="1462" y="-519" font-family="sans" font-size="10.00">srr: SRR5344347</text>
</g>
<!-- 40&#45;&gt;39 -->
<g id="edge58" class="edge">
<title>40&#45;&gt;39</title>
<path fill="none" stroke="grey" stroke-width="2" d="M1459.28,-508.7C1458.07,-500.98 1456.61,-491.71 1455.26,-483.11"/>
<polygon fill="grey" stroke="grey" stroke-width="2" points="1458.7,-482.44 1453.69,-473.1 1451.78,-483.53 1458.7,-482.44"/>
</g>
<!-- 41&#45;&gt;4 -->
<g id="edge21" class="edge">
<title>41&#45;&gt;4</title>
<path fill="none" stroke="grey" stroke-width="2" d="M1517.94,-361.84C1514.93,-361.17 1511.94,-360.55 1509,-360 1326.41,-325.72 1105.45,-313.01 1007.71,-308.82"/>
<polygon fill="grey" stroke="grey" stroke-width="2" points="1007.66,-305.32 997.52,-308.4 1007.37,-312.31 1007.66,-305.32"/>
</g>
<!-- 42 -->
<g id="node43" class="node">
<title>42</title>
<path fill="none" stroke="#567bd8" stroke-width="2" d="M1600.5,-473C1600.5,-473 1555.5,-473 1555.5,-473 1549.5,-473 1543.5,-467 1543.5,-461 1543.5,-461 1543.5,-449 1543.5,-449 1543.5,-443 1549.5,-437 1555.5,-437 1555.5,-437 1600.5,-437 1600.5,-437 1606.5,-437 1612.5,-443 1612.5,-449 1612.5,-449 1612.5,-461 1612.5,-461 1612.5,-467 1606.5,-473 1600.5,-473"/>
<text text-anchor="middle" x="1578" y="-452.5" font-family="sans" font-size="10.00">fastqdump</text>
</g>
<!-- 42&#45;&gt;41 -->
<g id="edge59" class="edge">
<title>42&#45;&gt;41</title>
<path fill="none" stroke="grey" stroke-width="2" d="M1578,-436.82C1578,-429.2 1578,-420 1578,-411.32"/>
<polygon fill="grey" stroke="grey" stroke-width="2" points="1581.5,-411.12 1578,-401.12 1574.5,-411.12 1581.5,-411.12"/>
</g>
<!-- 43 -->
<g id="node44" class="node">
<title>43</title>
<path fill="none" stroke="#c6d856" stroke-width="2" d="M1614.5,-545C1614.5,-545 1541.5,-545 1541.5,-545 1535.5,-545 1529.5,-539 1529.5,-533 1529.5,-533 1529.5,-521 1529.5,-521 1529.5,-515 1535.5,-509 1541.5,-509 1541.5,-509 1614.5,-509 1614.5,-509 1620.5,-509 1626.5,-515 1626.5,-521 1626.5,-521 1626.5,-533 1626.5,-533 1626.5,-539 1620.5,-545 1614.5,-545"/>
<text text-anchor="middle" x="1578" y="-530" font-family="sans" font-size="10.00">prefetch</text>
<text text-anchor="middle" x="1578" y="-519" font-family="sans" font-size="10.00">srr: SRR5344348</text>
</g>
<!-- 43&#45;&gt;42 -->
<g id="edge61" class="edge">
<title>43&#45;&gt;42</title>
<path fill="none" stroke="grey" stroke-width="2" d="M1578,-508.7C1578,-500.98 1578,-491.71 1578,-483.11"/>
<polygon fill="grey" stroke="grey" stroke-width="2" points="1581.5,-483.1 1578,-473.1 1574.5,-483.1 1581.5,-483.1"/>
</g>
<!-- 44&#45;&gt;4 -->
<g id="edge22" class="edge">
<title>44&#45;&gt;4</title>
<path fill="none" stroke="grey" stroke-width="2" d="M1655.95,-361.77C1652.94,-361.12 1649.94,-360.52 1647,-360 1410.7,-317.97 1123.04,-309.26 1008.05,-307.46"/>
<polygon fill="grey" stroke="grey" stroke-width="2" points="1007.85,-303.96 997.8,-307.32 1007.74,-310.96 1007.85,-303.96"/>
</g>
<!-- 45 -->
<g id="node46" class="node">
<title>45</title>
<path fill="none" stroke="#567bd8" stroke-width="2" d="M1738.5,-473C1738.5,-473 1693.5,-473 1693.5,-473 1687.5,-473 1681.5,-467 1681.5,-461 1681.5,-461 1681.5,-449 1681.5,-449 1681.5,-443 1687.5,-437 1693.5,-437 1693.5,-437 1738.5,-437 1738.5,-437 1744.5,-437 1750.5,-443 1750.5,-449 1750.5,-449 1750.5,-461 1750.5,-461 1750.5,-467 1744.5,-473 1738.5,-473"/>
<text text-anchor="middle" x="1716" y="-452.5" font-family="sans" font-size="10.00">fastqdump</text>
</g>
<!-- 45&#45;&gt;44 -->
<g id="edge62" class="edge">
<title>45&#45;&gt;44</title>
<path fill="none" stroke="grey" stroke-width="2" d="M1716,-436.82C1716,-429.2 1716,-420 1716,-411.32"/>
<polygon fill="grey" stroke="grey" stroke-width="2" points="1719.5,-411.12 1716,-401.12 1712.5,-411.12 1719.5,-411.12"/>
</g>
<!-- 46 -->
<g id="node47" class="node">
<title>46</title>
<path fill="none" stroke="#c6d856" stroke-width="2" d="M1752.5,-545C1752.5,-545 1679.5,-545 1679.5,-545 1673.5,-545 1667.5,-539 1667.5,-533 1667.5,-533 1667.5,-521 1667.5,-521 1667.5,-515 1673.5,-509 1679.5,-509 1679.5,-509 1752.5,-509 1752.5,-509 1758.5,-509 1764.5,-515 1764.5,-521 1764.5,-521 1764.5,-533 1764.5,-533 1764.5,-539 1758.5,-545 1752.5,-545"/>
<text text-anchor="middle" x="1716" y="-530" font-family="sans" font-size="10.00">prefetch</text>
<text text-anchor="middle" x="1716" y="-519" font-family="sans" font-size="10.00">srr: SRR5344349</text>
</g>
<!-- 46&#45;&gt;45 -->
<g id="edge64" class="edge">
<title>46&#45;&gt;45</title>
<path fill="none" stroke="grey" stroke-width="2" d="M1716,-508.7C1716,-500.98 1716,-491.71 1716,-483.11"/>
<polygon fill="grey" stroke="grey" stroke-width="2" points="1719.5,-483.1 1716,-473.1 1712.5,-483.1 1719.5,-483.1"/>
</g>
<!-- 47&#45;&gt;4 -->
<g id="edge23" class="edge">
<title>47&#45;&gt;4</title>
<path fill="none" stroke="grey" stroke-width="2" d="M1793.96,-361.73C1790.94,-361.09 1787.94,-360.5 1785,-360 1494.02,-310.15 1138.25,-306.15 1007.93,-306.54"/>
<polygon fill="grey" stroke="grey" stroke-width="2" points="1007.83,-303.04 997.85,-306.58 1007.86,-310.04 1007.83,-303.04"/>
</g>
<!-- 48 -->
<g id="node49" class="node">
<title>48</title>
<path fill="none" stroke="#567bd8" stroke-width="2" d="M1876.5,-473C1876.5,-473 1831.5,-473 1831.5,-473 1825.5,-473 1819.5,-467 1819.5,-461 1819.5,-461 1819.5,-449 1819.5,-449 1819.5,-443 1825.5,-437 1831.5,-437 1831.5,-437 1876.5,-437 1876.5,-437 1882.5,-437 1888.5,-443 1888.5,-449 1888.5,-449 1888.5,-461 1888.5,-461 1888.5,-467 1882.5,-473 1876.5,-473"/>
<text text-anchor="middle" x="1854" y="-452.5" font-family="sans" font-size="10.00">fastqdump</text>
</g>
<!-- 48&#45;&gt;47 -->
<g id="edge65" class="edge">
<title>48&#45;&gt;47</title>
<path fill="none" stroke="grey" stroke-width="2" d="M1854,-436.82C1854,-429.2 1854,-420 1854,-411.32"/>
<polygon fill="grey" stroke="grey" stroke-width="2" points="1857.5,-411.12 1854,-401.12 1850.5,-411.12 1857.5,-411.12"/>
</g>
<!-- 49 -->
<g id="node50" class="node">
<title>49</title>
<path fill="none" stroke="#c6d856" stroke-width="2" d="M1890.5,-545C1890.5,-545 1817.5,-545 1817.5,-545 1811.5,-545 1805.5,-539 1805.5,-533 1805.5,-533 1805.5,-521 1805.5,-521 1805.5,-515 1811.5,-509 1817.5,-509 1817.5,-509 1890.5,-509 1890.5,-509 1896.5,-509 1902.5,-515 1902.5,-521 1902.5,-521 1902.5,-533 1902.5,-533 1902.5,-539 1896.5,-545 1890.5,-545"/>
<text text-anchor="middle" x="1854" y="-530" font-family="sans" font-size="10.00">prefetch</text>
<text text-anchor="middle" x="1854" y="-519" font-family="sans" font-size="10.00">srr: SRR5344350</text>
</g>
<!-- 49&#45;&gt;48 -->
<g id="edge67" class="edge">
<title>49&#45;&gt;48</title>
<path fill="none" stroke="grey" stroke-width="2" d="M1854,-508.7C1854,-500.98 1854,-491.71 1854,-483.11"/>
<polygon fill="grey" stroke="grey" stroke-width="2" points="1857.5,-483.1 1854,-473.1 1850.5,-483.1 1857.5,-483.1"/>
</g>
<!-- 50 -->
<g id="node51" class="node">
<title>50</title>
<path fill="none" stroke="#68d856" stroke-width="2" d="M767,-108C767,-108 651,-108 651,-108 645,-108 639,-102 639,-96 639,-96 639,-84 639,-84 639,-78 645,-72 651,-72 651,-72 767,-72 767,-72 773,-72 779,-78 779,-84 779,-84 779,-96 779,-96 779,-102 773,-108 767,-108"/>
<text text-anchor="middle" x="709" y="-87.5" font-family="sans" font-size="10.00">Immune_Term_Reduction</text>
</g>
<!-- 50&#45;&gt;0 -->
<g id="edge2" class="edge">
<title>50&#45;&gt;0</title>
<path fill="none" stroke="grey" stroke-width="2" d="M766.67,-71.97C807.68,-59.85 862.01,-43.81 900.08,-32.56"/>
<polygon fill="grey" stroke="grey" stroke-width="2" points="901.28,-35.86 909.88,-29.67 899.3,-29.14 901.28,-35.86"/>
</g>
<!-- 51 -->
<g id="node52" class="node">
<title>51</title>
<path fill="none" stroke="#59d856" stroke-width="2" d="M750,-180C750,-180 720,-180 720,-180 714,-180 708,-174 708,-168 708,-168 708,-156 708,-156 708,-150 714,-144 720,-144 720,-144 750,-144 750,-144 756,-144 762,-150 762,-156 762,-156 762,-168 762,-168 762,-174 756,-180 750,-180"/>
<text text-anchor="middle" x="735" y="-159.5" font-family="sans" font-size="10.00">GSEA</text>
</g>
<!-- 51&#45;&gt;50 -->
<g id="edge68" class="edge">
<title>51&#45;&gt;50</title>
<path fill="none" stroke="grey" stroke-width="2" d="M728.57,-143.7C725.64,-135.81 722.11,-126.3 718.86,-117.55"/>
<polygon fill="grey" stroke="grey" stroke-width="2" points="722.12,-116.26 715.35,-108.1 715.55,-118.7 722.12,-116.26"/>
</g>
<!-- 52&#45;&gt;51 -->
<g id="edge69" class="edge">
<title>52&#45;&gt;51</title>
<path fill="none" stroke="grey" stroke-width="2" d="M759.09,-215.7C755.45,-207.73 751.05,-198.1 747.01,-189.26"/>
<polygon fill="grey" stroke="grey" stroke-width="2" points="750.16,-187.74 742.82,-180.1 743.79,-190.65 750.16,-187.74"/>
</g>
<!-- 53 -->
<g id="node54" class="node">
<title>53</title>
<path fill="none" stroke="#68d856" stroke-width="2" d="M925,-108C925,-108 809,-108 809,-108 803,-108 797,-102 797,-96 797,-96 797,-84 797,-84 797,-78 803,-72 809,-72 809,-72 925,-72 925,-72 931,-72 937,-78 937,-84 937,-84 937,-96 937,-96 937,-102 931,-108 925,-108"/>
<text text-anchor="middle" x="867" y="-87.5" font-family="sans" font-size="10.00">Immune_Term_Reduction</text>
</g>
<!-- 53&#45;&gt;0 -->
<g id="edge3" class="edge">
<title>53&#45;&gt;0</title>
<path fill="none" stroke="grey" stroke-width="2" d="M886.53,-71.7C896.38,-62.97 908.49,-52.24 919.2,-42.75"/>
<polygon fill="grey" stroke="grey" stroke-width="2" points="921.53,-45.36 926.7,-36.1 916.89,-40.12 921.53,-45.36"/>
</g>
<!-- 54 -->
<g id="node55" class="node">
<title>54</title>
<path fill="none" stroke="#59d856" stroke-width="2" d="M888,-180C888,-180 858,-180 858,-180 852,-180 846,-174 846,-168 846,-168 846,-156 846,-156 846,-150 852,-144 858,-144 858,-144 888,-144 888,-144 894,-144 900,-150 900,-156 900,-156 900,-168 900,-168 900,-174 894,-180 888,-180"/>
<text text-anchor="middle" x="873" y="-159.5" font-family="sans" font-size="10.00">GSEA</text>
</g>
<!-- 54&#45;&gt;53 -->
<g id="edge71" class="edge">
<title>54&#45;&gt;53</title>
<path fill="none" stroke="grey" stroke-width="2" d="M871.52,-143.7C870.86,-135.98 870.06,-126.71 869.32,-118.11"/>
<polygon fill="grey" stroke="grey" stroke-width="2" points="872.81,-117.77 868.47,-108.1 865.83,-118.37 872.81,-117.77"/>
</g>
<!-- 55&#45;&gt;54 -->
<g id="edge72" class="edge">
<title>55&#45;&gt;54</title>
<path fill="none" stroke="grey" stroke-width="2" d="M890.31,-215.7C887.75,-207.9 884.67,-198.51 881.82,-189.83"/>
<polygon fill="grey" stroke="grey" stroke-width="2" points="885.07,-188.51 878.62,-180.1 878.42,-190.7 885.07,-188.51"/>
</g>
<!-- 56 -->
<g id="node57" class="node">
<title>56</title>
<path fill="none" stroke="#68d856" stroke-width="2" d="M1083,-108C1083,-108 967,-108 967,-108 961,-108 955,-102 955,-96 955,-96 955,-84 955,-84 955,-78 961,-72 967,-72 967,-72 1083,-72 1083,-72 1089,-72 1095,-78 1095,-84 1095,-84 1095,-96 1095,-96 1095,-102 1089,-108 1083,-108"/>
<text text-anchor="middle" x="1025" y="-87.5" font-family="sans" font-size="10.00">Immune_Term_Reduction</text>
</g>
<!-- 56&#45;&gt;0 -->
<g id="edge4" class="edge">
<title>56&#45;&gt;0</title>
<path fill="none" stroke="grey" stroke-width="2" d="M1005.47,-71.7C995.62,-62.97 983.51,-52.24 972.8,-42.75"/>
<polygon fill="grey" stroke="grey" stroke-width="2" points="975.11,-40.12 965.3,-36.1 970.47,-45.36 975.11,-40.12"/>
</g>
<!-- 57 -->
<g id="node58" class="node">
<title>57</title>
<path fill="none" stroke="#59d856" stroke-width="2" d="M1037,-180C1037,-180 1007,-180 1007,-180 1001,-180 995,-174 995,-168 995,-168 995,-156 995,-156 995,-150 1001,-144 1007,-144 1007,-144 1037,-144 1037,-144 1043,-144 1049,-150 1049,-156 1049,-156 1049,-168 1049,-168 1049,-174 1043,-180 1037,-180"/>
<text text-anchor="middle" x="1022" y="-159.5" font-family="sans" font-size="10.00">GSEA</text>
</g>
<!-- 57&#45;&gt;56 -->
<g id="edge74" class="edge">
<title>57&#45;&gt;56</title>
<path fill="none" stroke="grey" stroke-width="2" d="M1022.74,-143.7C1023.07,-135.98 1023.47,-126.71 1023.84,-118.11"/>
<polygon fill="grey" stroke="grey" stroke-width="2" points="1027.34,-118.25 1024.27,-108.1 1020.34,-117.95 1027.34,-118.25"/>
</g>
<!-- 58&#45;&gt;57 -->
<g id="edge75" class="edge">
<title>58&#45;&gt;57</title>
<path fill="none" stroke="grey" stroke-width="2" d="M1019.74,-215.7C1020.07,-207.98 1020.47,-198.71 1020.84,-190.11"/>
<polygon fill="grey" stroke="grey" stroke-width="2" points="1024.34,-190.25 1021.27,-180.1 1017.34,-189.95 1024.34,-190.25"/>
</g>
<!-- 59 -->
<g id="node60" class="node">
<title>59</title>
<path fill="none" stroke="#68d856" stroke-width="2" d="M1241,-108C1241,-108 1125,-108 1125,-108 1119,-108 1113,-102 1113,-96 1113,-96 1113,-84 1113,-84 1113,-78 1119,-72 1125,-72 1125,-72 1241,-72 1241,-72 1247,-72 1253,-78 1253,-84 1253,-84 1253,-96 1253,-96 1253,-102 1247,-108 1241,-108"/>
<text text-anchor="middle" x="1183" y="-87.5" font-family="sans" font-size="10.00">Immune_Term_Reduction</text>
</g>
<!-- 59&#45;&gt;0 -->
<g id="edge5" class="edge">
<title>59&#45;&gt;0</title>
<path fill="none" stroke="grey" stroke-width="2" d="M1125.33,-71.97C1084.32,-59.85 1029.99,-43.81 991.92,-32.56"/>
<polygon fill="grey" stroke="grey" stroke-width="2" points="992.7,-29.14 982.12,-29.67 990.72,-35.86 992.7,-29.14"/>
</g>
<!-- 60 -->
<g id="node61" class="node">
<title>60</title>
<path fill="none" stroke="#59d856" stroke-width="2" d="M1186,-180C1186,-180 1156,-180 1156,-180 1150,-180 1144,-174 1144,-168 1144,-168 1144,-156 1144,-156 1144,-150 1150,-144 1156,-144 1156,-144 1186,-144 1186,-144 1192,-144 1198,-150 1198,-156 1198,-156 1198,-168 1198,-168 1198,-174 1192,-180 1186,-180"/>
<text text-anchor="middle" x="1171" y="-159.5" font-family="sans" font-size="10.00">GSEA</text>
</g>
<!-- 60&#45;&gt;59 -->
<g id="edge77" class="edge">
<title>60&#45;&gt;59</title>
<path fill="none" stroke="grey" stroke-width="2" d="M1173.97,-143.7C1175.29,-135.98 1176.88,-126.71 1178.35,-118.11"/>
<polygon fill="grey" stroke="grey" stroke-width="2" points="1181.83,-118.55 1180.07,-108.1 1174.93,-117.37 1181.83,-118.55"/>
</g>
<!-- 61&#45;&gt;60 -->
<g id="edge78" class="edge">
<title>61&#45;&gt;60</title>
<path fill="none" stroke="grey" stroke-width="2" d="M1161.97,-215.7C1163.29,-207.98 1164.88,-198.71 1166.35,-190.11"/>
<polygon fill="grey" stroke="grey" stroke-width="2" points="1169.83,-190.55 1168.07,-180.1 1162.93,-189.37 1169.83,-190.55"/>
</g>
<!-- 62 -->
<g id="node63" class="node">
<title>62</title>
<path fill="none" stroke="#68d856" stroke-width="2" d="M1399,-108C1399,-108 1283,-108 1283,-108 1277,-108 1271,-102 1271,-96 1271,-96 1271,-84 1271,-84 1271,-78 1277,-72 1283,-72 1283,-72 1399,-72 1399,-72 1405,-72 1411,-78 1411,-84 1411,-84 1411,-96 1411,-96 1411,-102 1405,-108 1399,-108"/>
<text text-anchor="middle" x="1341" y="-87.5" font-family="sans" font-size="10.00">Immune_Term_Reduction</text>
</g>
<!-- 62&#45;&gt;0 -->
<g id="edge6" class="edge">
<title>62&#45;&gt;0</title>
<path fill="none" stroke="grey" stroke-width="2" d="M1270.82,-73.72C1267.84,-73.13 1264.89,-72.55 1262,-72 1166.45,-53.72 1053.98,-35.68 992.3,-26.08"/>
<polygon fill="grey" stroke="grey" stroke-width="2" points="992.53,-22.58 982.11,-24.51 991.46,-29.5 992.53,-22.58"/>
</g>
<!-- 63 -->
<g id="node64" class="node">
<title>63</title>
<path fill="none" stroke="#59d856" stroke-width="2" d="M1339,-180C1339,-180 1309,-180 1309,-180 1303,-180 1297,-174 1297,-168 1297,-168 1297,-156 1297,-156 1297,-150 1303,-144 1309,-144 1309,-144 1339,-144 1339,-144 1345,-144 1351,-150 1351,-156 1351,-156 1351,-168 1351,-168 1351,-174 1345,-180 1339,-180"/>
<text text-anchor="middle" x="1324" y="-159.5" font-family="sans" font-size="10.00">GSEA</text>
</g>
<!-- 63&#45;&gt;62 -->
<g id="edge80" class="edge">
<title>63&#45;&gt;62</title>
<path fill="none" stroke="grey" stroke-width="2" d="M1328.2,-143.7C1330.1,-135.9 1332.38,-126.51 1334.48,-117.83"/>
<polygon fill="grey" stroke="grey" stroke-width="2" points="1337.89,-118.65 1336.85,-108.1 1331.08,-117 1337.89,-118.65"/>
</g>
<!-- 64&#45;&gt;63 -->
<g id="edge81" class="edge">
<title>64&#45;&gt;63</title>
<path fill="none" stroke="grey" stroke-width="2" d="M1311.96,-215.7C1313.72,-207.98 1315.84,-198.71 1317.8,-190.11"/>
<polygon fill="grey" stroke="grey" stroke-width="2" points="1321.27,-190.63 1320.09,-180.1 1314.45,-189.07 1321.27,-190.63"/>
</g>
</g>
</svg>
